HIERARCHY
ROOT hip
{
  OFFSET 5.70873 43.8894 -1.52928
  CHANNELS 6 Xposition Yposition Zposition Zrotation Xrotation Yrotation
  JOINT abdomen
  {
    OFFSET 0 5.99393 0.287273
    CHANNELS 6 Xposition Yposition Zposition Zrotation Xrotation Yrotation
    JOINT chest
    {
      OFFSET 0 6.65865 -0.856112
      CHANNELS 6 Xposition Yposition Zposition Zrotation Xrotation Yrotation
      JOINT neck
      {
        OFFSET 0 8.65624 -1.42685
        CHANNELS 6 Xposition Yposition Zposition Zrotation Xrotation Yrotation
        JOINT head
        {
          OFFSET 0 3.80999 -0.190247
          CHANNELS 6 Xposition Yposition Zposition Zrotation Xrotation Yrotation
          End Site
          {
            OFFSET 0 0 0
          }
        }
      }
      JOINT rCollar
      {
        OFFSET -1.4963 7.5744 -1.52136
        CHANNELS 6 Xposition Yposition Zposition Zrotation Xrotation Yrotation
        JOINT rShldr
        {
          OFFSET -5.47506 -0.905672 0.485692
          CHANNELS 6 Xposition Yposition Zposition Zrotation Xrotation Yrotation
          JOINT rForeArm
          {
            OFFSET -11.3069 -0.201091 0.618544
            CHANNELS 6 Xposition Yposition Zposition Zrotation Xrotation Yrotation
            JOINT rHand
            {
              OFFSET -9.61414 -0.254739 3.48553
              CHANNELS 6 Xposition Yposition Zposition Zrotation Xrotation Yrotation
              JOINT rThumb1
              {
                OFFSET 0.176263 -0.07068 1.26622
                CHANNELS 6 Xposition Yposition Zposition Zrotation Xrotation Yrotation
                JOINT rThumb2
                {
                  OFFSET -1.04683 -0.546484 1.82182
                  CHANNELS 6 Xposition Yposition Zposition Zrotation Xrotation Yrotation
                  JOINT rThumb3
                  {
                    OFFSET -0.993472 -0.621916 0.655506
                    CHANNELS 6 Xposition Yposition Zposition Zrotation Xrotation Yrotation
                    End Site
                    {
                      OFFSET -0.996134 -0.66263 0.644615
                    }
                  }
                }
              }
              JOINT rIndex1
              {
                OFFSET -2.64253 0.566363 2.4162
                CHANNELS 6 Xposition Yposition Zposition Zrotation Xrotation Yrotation
                JOINT rIndex2
                {
                  OFFSET -1.39394 -0.635138 0.899356
                  CHANNELS 6 Xposition Yposition Zposition Zrotation Xrotation Yrotation
                  JOINT rIndex3
                  {
                    OFFSET -0.622395 -0.856016 0.402182
                    CHANNELS 6 Xposition Yposition Zposition Zrotation Xrotation Yrotation
                    End Site
                    {
                      OFFSET -0.472476 -0.801802 0.34216
                    }
                  }
                }
              }
              JOINT rMid1
              {
                OFFSET -3.20814 0.514427 1.52547
                CHANNELS 6 Xposition Yposition Zposition Zrotation Xrotation Yrotation
                JOINT rMid2
                {
                  OFFSET -1.56545 -0.497974 0.68919
                  CHANNELS 6 Xposition Yposition Zposition Zrotation Xrotation Yrotation
                  JOINT rMid3
                  {
                    OFFSET -0.679943 -1.17582 0.444246
                    CHANNELS 6 Xposition Yposition Zposition Zrotation Xrotation Yrotation
                    End Site
                    {
                      OFFSET -0.343874 -0.941341 0.267611
                    }
                  }
                }
              }
              JOINT rRing1
              {
                OFFSET -3.47877 0.200518 0.597719
                CHANNELS 6 Xposition Yposition Zposition Zrotation Xrotation Yrotation
                JOINT rRing2
                {
                  OFFSET -1.28208 -0.53155 0.44672
                  CHANNELS 6 Xposition Yposition Zposition Zrotation Xrotation Yrotation
                  JOINT rRing3
                  {
                    OFFSET -0.710288 -0.970167 0.4032
                    CHANNELS 6 Xposition Yposition Zposition Zrotation Xrotation Yrotation
                    End Site
                    {
                      OFFSET -0.403228 -0.950952 0.378354
                    }
                  }
                }
              }
              JOINT rPinky1
              {
                OFFSET -3.42483 -0.278904 -0.240415
                CHANNELS 6 Xposition Yposition Zposition Zrotation Xrotation Yrotation
                JOINT rPinky2
                {
                  OFFSET -1.05787 -0.635999 0.156459
                  CHANNELS 6 Xposition Yposition Zposition Zrotation Xrotation Yrotation
                  JOINT rPinky3
                  {
                    OFFSET -0.42815 -0.754232 0.287187
                    CHANNELS 6 Xposition Yposition Zposition Zrotation Xrotation Yrotation
                    End Site
                    {
                      OFFSET -0.235717 -0.725605 0.279416
                    }
                  }
                }
              }
            }
          }
        }
      }
      JOINT lCollar
      {
        OFFSET 1.4963 7.5744 -1.52136
        CHANNELS 6 Xposition Yposition Zposition Zrotation Xrotation Yrotation
        JOINT lShldr
        {
          OFFSET 5.47506 -0.905672 0.485692
          CHANNELS 6 Xposition Yposition Zposition Zrotation Xrotation Yrotation
          JOINT lForeArm
          {
            OFFSET 11.3069 -0.201091 0.618544
            CHANNELS 6 Xposition Yposition Zposition Zrotation Xrotation Yrotation
            JOINT lHand
            {
              OFFSET 9.61414 -0.254739 3.48553
              CHANNELS 6 Xposition Yposition Zposition Zrotation Xrotation Yrotation
              JOINT lThumb1
              {
                OFFSET -0.176263 -0.07068 1.26622
                CHANNELS 6 Xposition Yposition Zposition Zrotation Xrotation Yrotation
                JOINT lThumb2
                {
                  OFFSET 1.04683 -0.546484 1.82182
                  CHANNELS 6 Xposition Yposition Zposition Zrotation Xrotation Yrotation
                  JOINT lThumb3
                  {
                    OFFSET 0.993472 -0.621916 0.655506
                    CHANNELS 6 Xposition Yposition Zposition Zrotation Xrotation Yrotation
                    End Site
                    {
                      OFFSET 0.996134 -0.66263 0.644615
                    }
                  }
                }
              }
              JOINT lIndex1
              {
                OFFSET 2.64253 0.566363 2.4162
                CHANNELS 6 Xposition Yposition Zposition Zrotation Xrotation Yrotation
                JOINT lIndex2
                {
                  OFFSET 1.39394 -0.635138 0.899356
                  CHANNELS 6 Xposition Yposition Zposition Zrotation Xrotation Yrotation
                  JOINT lIndex3
                  {
                    OFFSET 0.622395 -0.856016 0.402182
                    CHANNELS 6 Xposition Yposition Zposition Zrotation Xrotation Yrotation
                    End Site
                    {
                      OFFSET 0.472476 -0.801802 0.34216
                    }
                  }
                }
              }
              JOINT lMid1
              {
                OFFSET 3.20814 0.514427 1.52547
                CHANNELS 6 Xposition Yposition Zposition Zrotation Xrotation Yrotation
                JOINT lMid2
                {
                  OFFSET 1.56545 -0.497974 0.68919
                  CHANNELS 6 Xposition Yposition Zposition Zrotation Xrotation Yrotation
                  JOINT lMid3
                  {
                    OFFSET 0.679943 -1.17582 0.444246
                    CHANNELS 6 Xposition Yposition Zposition Zrotation Xrotation Yrotation
                    End Site
                    {
                      OFFSET 0.343874 -0.941341 0.267611
                    }
                  }
                }
              }
              JOINT lRing1
              {
                OFFSET 3.47877 0.200518 0.597719
                CHANNELS 6 Xposition Yposition Zposition Zrotation Xrotation Yrotation
                JOINT lRing2
                {
                  OFFSET 1.28208 -0.53155 0.44672
                  CHANNELS 6 Xposition Yposition Zposition Zrotation Xrotation Yrotation
                  JOINT lRing3
                  {
                    OFFSET 0.710288 -0.970167 0.4032
                    CHANNELS 6 Xposition Yposition Zposition Zrotation Xrotation Yrotation
                    End Site
                    {
                      OFFSET 0.403228 -0.950952 0.378354
                    }
                  }
                }
              }
              JOINT lPinky1
              {
                OFFSET 3.42483 -0.278904 -0.240415
                CHANNELS 6 Xposition Yposition Zposition Zrotation Xrotation Yrotation
                JOINT lPinky2
                {
                  OFFSET 1.05787 -0.635999 0.156459
                  CHANNELS 6 Xposition Yposition Zposition Zrotation Xrotation Yrotation
                  JOINT lPinky3
                  {
                    OFFSET 0.42815 -0.754232 0.287187
                    CHANNELS 6 Xposition Yposition Zposition Zrotation Xrotation Yrotation
                    End Site
                    {
                      OFFSET 0.235717 -0.725605 0.279416
                    }
                  }
                }
              }
            }
          }
        }
      }
    }
  }
  JOINT rThigh
  {
    OFFSET -4.17848 -1.02486 0.046356
    CHANNELS 6 Xposition Yposition Zposition Zrotation Xrotation Yrotation
    JOINT rShin
    {
      OFFSET 1.27155 -17.465 -0.237699
      CHANNELS 6 Xposition Yposition Zposition Zrotation Xrotation Yrotation
      JOINT rFoot
      {
        OFFSET 0.529163 -17.3815 -1.19582
        CHANNELS 6 Xposition Yposition Zposition Zrotation Xrotation Yrotation
        JOINT rToe
        {
          OFFSET -0.711591 -4.4863 4.0596
          CHANNELS 6 Xposition Yposition Zposition Zrotation Xrotation Yrotation
          End Site
          {
            OFFSET -0.869915 -1.10655 1.99006
          }
        }
      }
    }
  }
  JOINT lThigh
  {
    OFFSET 4.17848 -1.02486 0.046356
    CHANNELS 6 Xposition Yposition Zposition Zrotation Xrotation Yrotation
    JOINT lShin
    {
      OFFSET -1.27155 -17.465 -0.237699
      CHANNELS 6 Xposition Yposition Zposition Zrotation Xrotation Yrotation
      JOINT lFoot
      {
        OFFSET -0.529163 -17.3815 -1.19582
        CHANNELS 6 Xposition Yposition Zposition Zrotation Xrotation Yrotation
        JOINT lToe
        {
          OFFSET 0.711591 -4.4863 4.0596
          CHANNELS 6 Xposition Yposition Zposition Zrotation Xrotation Yrotation
          End Site
          {
            OFFSET 0.869915 -1.10655 1.99006
          }
        }
      }
    }
  }
}
MOTION
Frames:	4
Frame Time:	0.0333333
2.3921 44.3779 0.788311 -5.55737 -0.266927 5.49541 -4.44089e-016 5.99393 0.287273 1.69237 -0.0222576 -2.06153 0 6.65865 -0.856112 3.38285 -0.105361 -4.1215 4.44089e-016 8.65624 -1.42685 -0.101316 -0.0411994 -2.72837 0 3.80999 -0.190247 7.75763 0.43127 2.76998 -1.4963 7.5744 -1.52136 3.15815 -0.0520681 3.4133 -5.47506 -0.905672 0.485692 72.1881 -2.21968 0.966191 -11.3069 -0.201091 0.618544 2.6384 6.40353 20.3097 -9.61414 -0.254739 3.48553 -7.48938 5.27663 6.42437 0.176263 -0.07068 1.26622 -0.882566 0.973656 -2.69655 -1.04683 -0.546484 1.82182 -0.883015 0.97377 -2.69653 -0.993472 -0.621916 0.655506 -0.882737 0.973605 -2.69627 -2.64253 0.566363 2.4162 5.39257 1.39448 -0.858272 -1.39394 -0.635138 0.899356 5.39115 1.39404 -0.857996 -0.622395 -0.856016 0.402182 5.39008 1.39392 -0.858237 -3.20814 0.514427 1.52547 5.3388 1.59851 -0.832763 -1.56545 -0.497974 0.68919 5.33949 1.59914 -0.833039 -0.679943 -1.17582 0.444246 5.33955 1.59893 -0.8332 -3.47877 0.200518 0.597719 5.25255 1.76574 -1.0373 -1.28208 -0.53155 0.44672 5.25443 1.76658 -1.03843 -0.710288 -0.970167 0.4032 5.25482 1.76674 -1.03815 -3.42483 -0.278904 -0.240415 5.21688 1.90727 -0.9649 -1.05787 -0.635999 0.156459 5.2193 1.90804 -0.965537 -0.42815 -0.754232 0.287187 5.2187 1.908 -0.965504 1.4963 7.5744 -1.52136 3.14505 0.360743 3.39538 5.47506 -0.905672 0.485692 -80.332 1.7907 8.36646 11.3069 -0.201091 0.618544 -4.87628 -8.41458 -20.8066 9.61414 -0.254739 3.48553 -6.21665 -6.40172 6.07554 -0.176263 -0.07068 1.26622 -1.46504 -0.398969 -2.59993 1.04683 -0.546484 1.82182 -1.46549 -0.399255 -2.59986 0.993472 -0.621916 0.655506 -1.46523 -0.399151 -2.59959 2.64253 0.566363 2.4162 4.95927 -1.75491 -1.91955 1.39394 -0.635138 0.899356 4.95805 -1.75432 -1.91907 0.622395 -0.856016 0.402182 4.95694 -1.7542 -1.91911 3.20814 0.514427 1.52547 4.88815 -1.95358 -1.89812 1.56545 -0.497974 0.68919 4.88874 -1.95428 -1.89849 0.679943 -1.17582 0.444246 4.88879 -1.95413 -1.89878 3.47877 0.200518 0.597719 4.74112 -2.09369 -2.09586 1.28208 -0.53155 0.44672 4.74273 -2.09473 -2.09719 0.710288 -0.970167 0.4032 4.743 -2.0949 -2.09707 3.42483 -0.278904 -0.240415 4.70464 -2.23607 -2.0281 1.05787 -0.635999 0.156459 4.70674 -2.23712 -2.02918 0.42815 -0.754232 0.287187 4.7062 -2.23703 -2.02895 -4.17848 -1.02486 0.046356 3.90556 1.4871 4.17133 1.27155 -17.465 -0.237699 -0.605084 -2.74075 -0.200058 0.529163 -17.3815 -1.19582 3.54601 0.330946 -9.37135 -0.711591 -4.4863 4.0596 0.13248 0.96674 -0.0270479 4.17848 -1.02486 0.046356 16.2851 -4.11581 5.19277 -1.27155 -17.465 -0.237699 -0.0343144 8.87445 -0.996881 -0.529163 -17.3815 -1.19582 -4.15291 -5.0104 -8.78688 0.711591 -4.4863 4.0596 0.1189 -0.967665 0.0497212 
2.39289 44.3831 0.77156 -5.35216 -0.173064 5.18531 6.66134e-016 5.99393 0.287273 1.56416 -0.0776481 -2.05358 -3.88578e-016 6.65865 -0.856112 3.12457 -0.211272 -4.10428 0 8.65624 -1.42685 -0.00396892 0.00213483 -2.59294 4.44089e-016 3.80999 -0.190247 7.93207 0.567633 3.04802 -1.4963 7.5744 -1.52136 3.19768 -0.0476612 3.29092 -5.47506 -0.905672 0.485692 71.5548 -2.99504 0.569393 -11.3069 -0.201091 0.618544 2.85519 5.15302 20.7989 -9.61414 -0.254739 3.48553 -7.58594 5.19325 6.47349 0.176263 -0.07068 1.26622 -0.882541 0.973618 -2.69655 -1.04683 -0.546484 1.82182 -0.883012 0.973778 -2.69654 -0.993472 -0.621916 0.655506 -0.882745 0.973608 -2.69627 -2.64253 0.566363 2.4162 5.39259 1.39448 -0.858263 -1.39394 -0.635138 0.899356 5.39117 1.39403 -0.857996 -0.622395 -0.856016 0.402182 5.39008 1.39392 -0.858237 -3.20814 0.514427 1.52547 5.33879 1.59852 -0.83275 -1.56545 -0.497974 0.68919 5.33948 1.59914 -0.833029 -0.679943 -1.17582 0.444246 5.33953 1.59894 -0.833196 -3.47877 0.200518 0.597719 5.25258 1.76574 -1.0373 -1.28208 -0.53155 0.44672 5.25443 1.76659 -1.03843 -0.710288 -0.970167 0.4032 5.25481 1.76674 -1.03815 -3.42483 -0.278904 -0.240415 5.2169 1.90728 -0.964893 -1.05787 -0.635999 0.156459 5.21929 1.90805 -0.965532 -0.42815 -0.754232 0.287187 5.2187 1.90801 -0.965491 1.4963 7.5744 -1.52136 3.2599 0.301319 3.33395 5.47506 -0.905672 0.485692 -79.1586 1.78601 7.33241 11.3069 -0.201091 0.618544 -5.03818 -8.38714 -21.504 9.61414 -0.254739 3.48553 -5.92195 -6.72323 5.68638 -0.176263 -0.07068 1.26622 -1.46503 -0.398974 -2.59994 1.04683 -0.546484 1.82182 -1.46548 -0.399245 -2.59985 0.993472 -0.621916 0.655506 -1.46514 -0.39912 -2.59938 2.64253 0.566363 2.4162 5.15514 -1.78991 -1.95707 1.39394 -0.635138 0.899356 5.11017 -1.81106 -1.97588 0.622395 -0.856016 0.402182 5.11967 -1.81491 -1.97987 3.20814 0.514427 1.52547 5.06968 -1.98078 -1.94743 1.56545 -0.497974 0.68919 5.05537 -2.02197 -1.95869 0.679943 -1.17582 0.444246 5.04912 -2.02134 -1.9586 3.47877 0.200518 0.597719 4.91566 -2.1241 -2.16238 1.28208 -0.53155 0.44672 4.89808 -2.16678 -2.16345 0.710288 -0.970167 0.4032 4.89832 -2.16696 -2.16332 3.42483 -0.278904 -0.240415 4.8785 -2.27117 -2.09361 1.05787 -0.635999 0.156459 4.86082 -2.31375 -2.09303 0.42815 -0.754232 0.287187 4.8603 -2.31366 -2.09281 -4.17848 -1.02486 0.046356 3.64684 1.2213 4.10605 1.27155 -17.465 -0.237699 -0.500719 -2.4216 -0.0193906 0.529163 -17.3815 -1.19582 3.54973 0.216473 -9.21069 -0.711591 -4.4863 4.0596 0.108325 0.980595 -0.0270676 4.17848 -1.02486 0.046356 16.0024 -3.8812 5.17319 -1.27155 -17.465 -0.237699 0.0104262 8.40879 -0.76352 -0.529163 -17.3815 -1.19582 -4.14897 -4.78192 -8.68072 0.711591 -4.4863 4.0596 0.12036 -0.982564 0.0505001 
2.40057 44.3884 0.722123 -5.08108 -0.0665897 4.90852 4.44089e-016 5.99393 0.287273 1.42334 -0.161081 -2.03018 5.55112e-017 6.65865 -0.856112 2.84007 -0.372562 -4.05577 -4.44089e-016 8.65624 -1.42685 0.0133964 0.0516606 -2.62089 0 3.80999 -0.190247 8.16886 0.810152 3.42878 -1.4963 7.5744 -1.52136 3.31075 -0.035993 2.94646 -5.47506 -0.905672 0.485692 70.6708 -3.8114 0.181069 -11.3069 -0.201091 0.618544 3.39728 4.0928 22.1414 -9.61414 -0.254739 3.48553 -7.85843 4.94167 6.61477 0.176263 -0.07068 1.26622 -0.882557 0.97359 -2.69654 -1.04683 -0.546484 1.82182 -0.883013 0.973791 -2.69652 -0.993472 -0.621916 0.655506 -0.88274 0.973613 -2.69629 -2.64253 0.566363 2.4162 5.39259 1.39449 -0.858265 -1.39394 -0.635138 0.899356 5.39116 1.39405 -0.857992 -0.622395 -0.856016 0.402182 5.39008 1.39393 -0.85824 -3.20814 0.514427 1.52547 5.3388 1.59855 -0.832755 -1.56545 -0.497974 0.68919 5.33951 1.59916 -0.83304 -0.679943 -1.17582 0.444246 5.33953 1.59894 -0.833193 -3.47877 0.200518 0.597719 5.25255 1.76576 -1.03731 -1.28208 -0.53155 0.44672 5.25443 1.76659 -1.03842 -0.710288 -0.970167 0.4032 5.25482 1.76674 -1.03816 -3.42483 -0.278904 -0.240415 5.2169 1.9073 -0.964905 -1.05787 -0.635999 0.156459 5.2193 1.90805 -0.965538 -0.42815 -0.754232 0.287187 5.21873 1.90801 -0.965494 1.4963 7.5744 -1.52136 3.58087 0.133397 3.16063 5.47506 -0.905672 0.485692 -78.1158 1.78788 6.43758 11.3069 -0.201091 0.618544 -5.53787 -8.58188 -23.4689 9.61414 -0.254739 3.48553 -5.10638 -7.63697 4.5979 -0.176263 -0.07068 1.26622 -1.46505 -0.398979 -2.59993 1.04683 -0.546484 1.82182 -1.4655 -0.399243 -2.59985 0.993472 -0.621916 0.655506 -1.46502 -0.399095 -2.59918 2.64253 0.566363 2.4162 5.69646 -1.88803 -2.05942 1.39394 -0.635138 0.899356 5.53046 -1.96873 -2.13213 0.622395 -0.856016 0.402182 5.56928 -1.98364 -2.14695 3.20814 0.514427 1.52547 5.57146 -2.0572 -2.08258 1.56545 -0.497974 0.68919 5.49204 -2.20823 -2.12271 0.679943 -1.17582 0.444246 5.49211 -2.20807 -2.12302 3.47877 0.200518 0.597719 5.39824 -2.20944 -2.34511 1.28208 -0.53155 0.44672 5.32709 -2.36692 -2.34565 0.710288 -0.970167 0.4032 5.32737 -2.36709 -2.34551 3.42483 -0.278904 -0.240415 5.35911 -2.36939 -2.27363 1.05787 -0.635999 0.156459 5.28643 -2.52652 -2.26847 0.42815 -0.754232 0.287187 5.28593 -2.52641 -2.26826 -4.17848 -1.02486 0.046356 3.27372 0.86017 3.89866 1.27155 -17.465 -0.237699 -0.363484 -2.01424 0.189447 0.529163 -17.3815 -1.19582 3.61945 0.0861857 -8.98757 -0.711591 -4.4863 4.0596 0.0415368 1.01884 -0.0270584 4.17848 -1.02486 0.046356 15.6267 -3.69757 5.13248 -1.27155 -17.465 -0.237699 0.0665227 7.89501 -0.482461 -0.529163 -17.3815 -1.19582 -4.1294 -4.46872 -8.60797 0.711591 -4.4863 4.0596 0.124401 -1.02386 0.0526462 
2.41392 44.3948 0.646485 -4.7618 0.044935 4.65305 2.22045e-016 5.99393 0.287273 1.27333 -0.26711 -1.99679 -2.498e-016 6.65865 -0.856112 2.53662 -0.578349 -3.98725 0 8.65624 -1.42685 -0.0354983 0.108263 -2.77476 0 3.80999 -0.190247 8.45527 1.13916 3.89364 -1.4963 7.5744 -1.52136 3.4881 -0.0194105 2.41546 -5.47506 -0.905672 0.485692 69.5979 -4.64516 -0.20569 -11.3069 -0.201091 0.618544 4.22641 3.19805 24.2037 -9.61414 -0.254739 3.48553 -8.28083 4.51932 6.83832 0.176263 -0.07068 1.26622 -0.88252 0.973568 -2.69655 -1.04683 -0.546484 1.82182 -0.883077 0.973812 -2.69651 -0.993472 -0.621916 0.655506 -0.882741 0.973605 -2.69627 -2.64253 0.566363 2.4162 5.39259 1.39448 -0.858252 -1.39394 -0.635138 0.899356 5.39114 1.39406 -0.857989 -0.622395 -0.856016 0.402182 5.39006 1.39394 -0.858223 -3.20814 0.514427 1.52547 5.33879 1.59854 -0.832749 -1.56545 -0.497974 0.68919 5.3395 1.59915 -0.833046 -0.679943 -1.17582 0.444246 5.33953 1.59894 -0.833171 -3.47877 0.200518 0.597719 5.25256 1.76576 -1.0373 -1.28208 -0.53155 0.44672 5.25441 1.76659 -1.03843 -0.710288 -0.970167 0.4032 5.25481 1.76675 -1.03814 -3.42483 -0.278904 -0.240415 5.2169 1.90732 -0.964894 -1.05787 -0.635999 0.156459 5.21924 1.90806 -0.965527 -0.42815 -0.754232 0.287187 5.21872 1.90801 -0.965473 1.4963 7.5744 -1.52136 4.07032 -0.127884 2.89322 5.47506 -0.905672 0.485692 -77.1921 1.78664 5.67466 11.3069 -0.201091 0.618544 -6.36756 -8.95244 -26.4888 9.61414 -0.254739 3.48553 -3.88495 -9.07077 2.93147 -0.176263 -0.07068 1.26622 -1.46504 -0.399007 -2.59993 1.04683 -0.546484 1.82182 -1.46547 -0.399249 -2.59985 0.993472 -0.621916 0.655506 -1.46488 -0.399062 -2.59898 2.64253 0.566363 2.4162 6.51366 -2.04003 -2.21012 1.39394 -0.635138 0.899356 6.16467 -2.20906 -2.36603 0.622395 -0.856016 0.402182 6.24759 -2.24099 -2.39687 3.20814 0.514427 1.52547 6.32933 -2.17601 -2.28343 1.56545 -0.497974 0.68919 6.16032 -2.49268 -2.36837 0.679943 -1.17582 0.444246 6.16037 -2.49252 -2.36869 3.47877 0.200518 0.597719 6.12726 -2.34159 -2.61803 1.28208 -0.53155 0.44672 5.9741 -2.67182 -2.61807 0.710288 -0.970167 0.4032 5.9744 -2.67199 -2.61793 3.42483 -0.278904 -0.240415 6.08502 -2.521 -2.54245 1.05787 -0.635999 0.156459 5.92828 -2.85036 -2.53058 0.42815 -0.754232 0.287187 5.92777 -2.85025 -2.53035 -4.17848 -1.02486 0.046356 2.81655 0.430623 3.57134 1.27155 -17.465 -0.237699 -0.203532 -1.5474 0.424004 0.529163 -17.3815 -1.19582 3.72554 -0.0428766 -8.70632 -0.711591 -4.4863 4.0596 -0.0721597 1.08397 -0.0268066 4.17848 -1.02486 0.046356 15.1818 -3.54054 5.07269 -1.27155 -17.465 -0.237699 0.130888 7.32382 -0.163595 -0.529163 -17.3815 -1.19582 -4.09523 -4.07857 -8.55728 0.711591 -4.4863 4.0596 0.130522 -1.08621 0.0558949 
